<?xml version="1.0" standalone="no"?><!DOCTYPE svg PUBLIC "-//W3C//DTD SVG 1.1//EN" "http://www.w3.org/Graphics/SVG/1.1/DTD/svg11.dtd"><svg t="1594890435847" class="icon" viewBox="0 0 1024 1024" version="1.1" xmlns="http://www.w3.org/2000/svg" p-id="18528" xmlns:xlink="http://www.w3.org/1999/xlink" width="128" height="128"><defs><style type="text/css"></style></defs><path d="M584.8 697c0 5.9-2.3 11.3-6.1 15.1-4.3 3.8-9.3 6.1-15.6 6.1h-30.5V608.5h30.5c6.1 0 11.3 2.5 15.6 5.9 3.8 4.1 6.1 9.5 6.1 15.4V697z m-93.4-130h-30.7c-5.2 0-11.3-2.5-14.9-6.3-4.1-4.1-6.8-9.5-6.8-15.4v-67.5c0-5.6 2.7-11.1 6.5-14.7 3.8-4.1 9.3-6.8 15.1-6.8h30.7V567z m135 62.7c0-17.4-7.2-33-18.3-44.2-11.3-10.8-26.2-18.1-42.7-18.5h-32.7V456.4h30.5c6.1 0 11.3 2.7 15.6 6.8 3.8 3.6 6.1 9 6.1 14.7 0 11.5 9.5 21.2 20.8 21.2 11.7 0 20.8-9.7 20.8-21.2 0-17.2-7.2-32.7-18.3-44-11.7-11.3-27.8-18.5-44.9-18.5h-30.5v-18.1c0-11.3-9-20.5-20.5-20.5-11.3 0-20.8 9.3-20.8 20.5v18.1h-30.7c-17.2 0-33 7.2-44.2 18.5-11.7 11.3-18.5 26.9-18.5 44v67.5c0 17.6 6.8 33.2 18.3 44.2 11.1 11.1 26.4 18.1 42.4 18.5l2 0.5h30.7v109.7h-30.7c-5.9 0-11.3-2.3-15.1-6.1-3.8-3.8-6.1-9.3-6.1-15.1 0-11.3-9.3-20.5-20.8-20.5-11.3 0-20.8 9.3-20.8 20.5 0 17.2 7.2 33 18.5 44.2s27.1 18.7 44.2 18.7h30.7v17.6c0 11.7 9.5 21.2 20.8 21.2 11.5 0 20.5-9.5 20.5-21.2V760h30.5c17.2 0 33.2-7.4 44.9-18.7 11.1-11.3 18.3-27.1 18.3-44.2v-67.4zM202 890.7c8.4-17.6 16-36.8 22.3-56.2 14.2-43.1 23.3-88.9 23.3-129.1V542.8c0-35.7 7.2-69.8 20.1-100.9 13.1-32.5 33.2-61.4 57.6-85.8 26.2-26.2 55.1-45.1 85.6-57.8 32.7-13.1 67-19.4 101.4-19.2h0.5c34.3-0.2 68.4 6.1 100.7 19.2 30.7 12.6 59.6 31.6 85.6 57.8 48.1 47.9 78.1 114 78.1 186.7v162.5c0 40.2 8.8 86 22.8 129.1 6.3 19.4 14 38.6 23 56.2H202z m366.1-757.8l-56 56.2-56.4-56.2h112.4zM909.7 904c-16-20.5-32.7-54.4-44.5-91-11.7-36.6-19.9-74.9-19.9-107.7V542.8c0-91.9-37.2-175.2-97.3-235.7-32.7-32.3-69.8-56.4-108.6-71.8-19-8.6-38.4-14.2-58.2-17.8l94.6-94.4c6.5-6.3 10.2-15.1 10.2-24.8 0-19-15.4-34.3-34.3-34.3H372.8c-9 0-17.8 3.4-24.6 9.9-13.3 13.5-13.3 35.2 0 49.2l94.8 94.4c-20.3 3.6-39.3 9.3-58.2 17.8-39.5 15.4-76.1 39.5-108.4 71.8-30.7 30.9-55.5 68-72.7 108.1-16.3 39.5-25.3 82.6-25.3 127.5v162.5c0 32.7-7.4 71.1-19.6 107.7-11.3 36.1-26.9 68.6-43.8 89.4-5.2 5.9-8.4 14.2-8.4 23 0 19.2 15.1 34.5 34.1 34.5h742.5v-0.2c7.4 0 15.1-2.5 21.7-7.4 14.3-11.8 16.7-33.5 4.8-48.2z" fill="" p-id="18529"></path></svg>