<?xml version="1.0" standalone="no"?><!DOCTYPE svg PUBLIC "-//W3C//DTD SVG 1.1//EN" "http://www.w3.org/Graphics/SVG/1.1/DTD/svg11.dtd"><svg t="1594890159942" class="icon" viewBox="0 0 1024 1024" version="1.1" xmlns="http://www.w3.org/2000/svg" p-id="16284" xmlns:xlink="http://www.w3.org/1999/xlink" width="128" height="128"><defs><style type="text/css"></style></defs><path d="M870.4 51.2a102.4 102.4 0 0 1 102.4 102.4v563.2a102.4 102.4 0 0 1-102.4 102.4h-223.3856l165.632 94.6688a38.4 38.4 0 0 1 15.9744 49.0752l-1.6896 3.328a38.4 38.4 0 0 1-49.0752 15.9488l-3.328-1.6896-249.728-142.6944-249.7536 142.6944a38.4 38.4 0 0 1-41.216-64.6912l3.1232-1.9712L402.56 819.2H153.6a102.4 102.4 0 0 1-102.4-102.4V153.6a102.4 102.4 0 0 1 102.4-102.4h716.8z m0 76.8H153.6a25.6 25.6 0 0 0-25.6 25.6v563.2a25.6 25.6 0 0 0 25.6 25.6h716.8a25.6 25.6 0 0 0 25.6-25.6V153.6a25.6 25.6 0 0 0-25.6-25.6z m-129.28 151.808a38.4 38.4 0 1 1 53.76 54.784l-234.6496 230.4a38.4 38.4 0 0 1-55.808-2.1504l-101.248-115.9424-120.2688 118.0928a38.4 38.4 0 1 1-53.8112-54.784l149.3248-146.6368a38.4 38.4 0 0 1 55.8336 2.1504l101.2224 115.968z" p-id="16285"></path></svg>